<svg width="32" height="32" viewBox="0 0 32 32" fill="currentColor" xmlns="http://www.w3.org/2000/svg">
<path d="M3.2 4.80001H8L11.2 1.60001H20.8L24 4.80001H28.8C29.6487 4.80001 30.4626 5.13715 31.0627 5.73726C31.6629 6.33738 32 7.15131 32 8.00001V27.2C32 28.0487 31.6629 28.8626 31.0627 29.4627C30.4626 30.0629 29.6487 30.4 28.8 30.4H3.2C2.35131 30.4 1.53737 30.0629 0.937258 29.4627C0.337142 28.8626 0 28.0487 0 27.2V8.00001C0 7.15131 0.337142 6.33738 0.937258 5.73726C1.53737 5.13715 2.35131 4.80001 3.2 4.80001ZM16 9.60001C13.8783 9.60001 11.8434 10.4429 10.3431 11.9432C8.84285 13.4434 8 15.4783 8 17.6C8 19.7217 8.84285 21.7566 10.3431 23.2569C11.8434 24.7572 13.8783 25.6 16 25.6C18.1217 25.6 20.1566 24.7572 21.6569 23.2569C23.1571 21.7566 24 19.7217 24 17.6C24 15.4783 23.1571 13.4434 21.6569 11.9432C20.1566 10.4429 18.1217 9.60001 16 9.60001ZM16 12.8C17.273 12.8 18.4939 13.3057 19.3941 14.2059C20.2943 15.1061 20.8 16.327 20.8 17.6C20.8 18.873 20.2943 20.0939 19.3941 20.9941C18.4939 21.8943 17.273 22.4 16 22.4C14.727 22.4 13.5061 21.8943 12.6059 20.9941C11.7057 20.0939 11.2 18.873 11.2 17.6C11.2 16.327 11.7057 15.1061 12.6059 14.2059C13.5061 13.3057 14.727 12.8 16 12.8Z"/>
</svg>
